<svg xmlns="http://www.w3.org/2000/svg" xmlns:xlink="http://www.w3.org/1999/xlink" version="1.1" x="0px" y="0px" viewBox="0 0 100 125" style="enable-background:new 0 0 100 100;" xml:space="preserve"><path d="M74,50l11-11.1c6.6-6.6,6.6-17.4,0-24c-3.3-3.3-7.6-5-12-5c-4.3,0-8.7,1.7-12,5L50,26L38.9,15c-3.3-3.3-7.6-5-12-5  s-8.7,1.7-12,5c-6.6,6.6-6.6,17.4,0,24L26,50L15,61.1c-6.6,6.6-6.6,17.4,0,24c3.3,3.3,7.6,5,12,5c4.3,0,8.7-1.7,12-5L50,74l11.1,11  c3.3,3.3,7.6,5,12,5c4.3,0,8.7-1.7,12-5c6.6-6.6,6.6-17.4,0-24L74,50z M27,86c-3.5,0-6.7-1.3-9.2-3.8C15.3,79.8,14,76.5,14,73  s1.3-6.7,3.8-9.2l46.1-46.1c2.4-2.4,5.7-3.8,9.2-3.8s6.7,1.3,9.2,3.8c2.4,2.4,3.8,5.7,3.8,9.2s-1.3,6.7-3.8,9.2L36.1,82.2  C33.7,84.7,30.4,86,27,86z M17.8,36.1C15.3,33.7,14,30.4,14,27s1.3-6.7,3.8-9.2c2.4-2.4,5.7-3.8,9.2-3.8s6.7,1.3,9.2,3.8l11.1,11.1  l-2.6,2.6l-4-4L27.5,40.6l4,4l-2.6,2.6L17.8,36.1z M82.2,82.2C79.8,84.7,76.5,86,73,86s-6.7-1.3-9.2-3.8l-11-11.1l2.6-2.6l4,4  l13.2-13.2l-4-4l2.6-2.6l11.1,11.1c2.4,2.4,3.8,5.7,3.8,9.2C86,76.5,84.7,79.8,82.2,82.2z"/><path d="M36,24.3c1-1,1-2.6,0-3.6s-2.6-1-3.6,0s-1,2.6,0,3.6S35,25.3,36,24.3z"/><path d="M30,30.3c1-1,1-2.6,0-3.6s-2.6-1-3.6,0s-1,2.6,0,3.6S29,31.3,30,30.3z"/><path d="M20.3,32.8c-1,1-1,2.6,0,3.6s2.6,1,3.6,0s1-2.6,0-3.6S21.3,31.8,20.3,32.8z"/><path d="M22.1,28.2c1-1,1-2.6,0-3.6s-2.6-1-3.6,0s-1,2.6,0,3.6S21.1,29.2,22.1,28.2z"/><path d="M27.9,22.4c1-1,1-2.6,0-3.6s-2.6-1-3.6,0s-1,2.6,0,3.6S26.9,23.4,27.9,22.4z"/><path d="M79.4,67.6c1-1,1-2.6,0-3.6s-2.6-1-3.6,0s-1,2.6,0,3.6S78.4,68.6,79.4,67.6z"/><path d="M73.3,73.7c1-1,1-2.6,0-3.6s-2.6-1-3.6,0s-1,2.6,0,3.6C70.8,74.7,72.4,74.7,73.3,73.7z"/><path d="M63.7,76.2c-1,1-1,2.6,0,3.6c1,1,2.6,1,3.6,0s1-2.6,0-3.6S64.7,75.2,63.7,76.2z"/><path d="M71.9,78c-1,1-1,2.6,0,3.6s2.6,1,3.6,0s1-2.6,0-3.6C74.4,77.1,72.8,77.1,71.9,78z"/><path d="M77.6,72.2c-1,1-1,2.6,0,3.6s2.6,1,3.6,0s1-2.6,0-3.6C80.2,71.3,78.6,71.3,77.6,72.2z"/><rect x="27.5" y="40.7" transform="matrix(0.7071 -0.7071 0.7071 0.7071 -20.6753 50.0141)" width="45.1" height="18.6"/><path d="M24.3,67.5c1-1,1-2.6,0-3.6s-2.6-1-3.6,0s-1,2.6,0,3.6C21.7,68.5,23.3,68.5,24.3,67.5z"/><path d="M26.8,70c-1,1-1,2.6,0,3.6s2.6,1,3.6,0s1-2.6,0-3.6C29.3,69,27.7,69,26.8,70z"/><path d="M32.8,76.1c-1,1-1,2.6,0,3.6s2.6,1,3.6,0s1-2.6,0-3.6C35.4,75.1,33.8,75.1,32.8,76.1z"/><path d="M24.7,77.9c-1,1-1,2.6,0,3.6s2.6,1,3.6,0s1-2.6,0-3.6C27.3,77,25.7,77,24.7,77.9z"/><path d="M18.9,72.1c-1,1-1,2.6,0,3.6s2.6,1,3.6,0s1-2.6,0-3.6C21.5,71.2,19.9,71.2,18.9,72.1z"/><path d="M67.6,24.2c1-1,1-2.6,0-3.6s-2.6-1-3.6,0s-1,2.6,0,3.6C65.1,25.2,66.7,25.2,67.6,24.2z"/><path d="M73.7,30.2c1-1,1-2.6,0-3.6s-2.6-1-3.6,0s-1,2.6,0,3.6S72.7,31.2,73.7,30.2z"/><path d="M76.2,32.7c-1,1-1,2.6,0,3.6s2.6,1,3.6,0s1-2.6,0-3.6C78.8,31.7,77.2,31.7,76.2,32.7z"/><path d="M81.6,28.1c1-1,1-2.6,0-3.6s-2.6-1-3.6,0s-1,2.6,0,3.6S80.6,29.1,81.6,28.1z"/><path d="M75.8,22.3c1-1,1-2.6,0-3.6s-2.6-1-3.6,0s-1,2.6,0,3.6C73.2,23.3,74.8,23.3,75.8,22.3z"/><text x="0" y="115" fill="#000000" font-size="5px" font-weight="bold" font-family="'Helvetica Neue', Helvetica, Arial-Unicode, Arial, Sans-serif">Created by Claudio Gomboli</text><text x="0" y="120" fill="#000000" font-size="5px" font-weight="bold" font-family="'Helvetica Neue', Helvetica, Arial-Unicode, Arial, Sans-serif">from the Noun Project</text></svg>