<svg xmlns="http://www.w3.org/2000/svg" version="1.1" viewBox="-5.0 -10.0 110.0 135.0">
 <path d="m29.566 43.75c-0.26172 0.29297-0.23828 0.74609 0.058594 1.0078 0.29297 0.26172 0.74609 0.23828 1.0078-0.058593 0.26172-0.29297 0.23828-0.74609-0.058593-1.0078-0.29297-0.26172-0.74609-0.23828-1.0078 0.058594z"/>
 <path d="m31.93 43.773c-0.26172 0.29297-0.23828 0.74609 0.058593 1.0078 0.29297 0.26172 0.74609 0.23828 1.0078-0.058594 0.26172-0.29297 0.23828-0.74609-0.058594-1.0078-0.29297-0.26172-0.74609-0.23828-1.0078 0.058594z"/>
 <path d="m31.5 54.906-1.6562-1.25c-0.25-0.1875-0.65625-0.15625-0.84375 0.125-0.6875 0.84375-2.0938 2.8125-2.8438 5.1875-0.15625 0.4375 0.0625 0.90625 0.5 1.0938l2 0.875c0.25 0.125 0.5 0 0.625-0.21875 0-0.03125 0.03125-0.09375 0.03125-0.125 0.3125-2.0312 1.5625-3.7812 2.3125-4.625 0.25-0.3125 0.21875-0.78125-0.09375-1.0625z"/>
 <path d="m94.094 42.469-3.1875 0.03125c-0.65625 0-1.25 0.34375-1.5625 0.90625l-3 0.03125-0.03125-5.1562c0-1.3125-1.0625-2.3438-2.3438-2.3438h-1.5c-0.90625 0.03125-1.75 0.4375-2.3125 1.125l-3.3438 4.0625v-0.34375c-0.03125-0.4375-0.375-0.78125-0.78125-0.78125l-20.375 0.15625c-0.4375 0-0.78125 0.34375-0.78125 0.78125v0.8125l-1.5312 0.03125c-0.25-0.65625-0.875-1.1562-1.625-1.1562l-6.2812 0.0625v-2.0625h0.5c0.90625 0 1.6875-0.6875 1.7812-1.5625l1.0312-0.03125c1.0625 0 1.9375-0.875 1.9375-1.9688l-0.03125-2c0-1.0938-0.875-1.9375-1.9375-1.9375h-1.7812l-10.312 0.09375c-1.25 0-2.2812 1.0312-2.2812 2.3125l0.03125 2.9062c0 0.59375 0.25 1.1875 0.6875 1.625 0.03125 0 0.0625 0.03125 0.09375 0.0625 0.28125 0.25 0.59375 0.4375 0.96875 0.53125l0.03125 2.0938h-2.5312l-0.03125-2.0938c0-0.40625-0.34375-0.75-0.78125-0.75l-3.5938 0.03125c-1.3438 0-2.4062 1.0938-2.375 2.4062v0.46875h-0.0625l-3.4375 0.03125-14.969 0.125h-1.375c-1.6562 0.03125-3 1.375-2.9688 3.0312l0.0625 10.781c0 0.84375 0.34375 1.6562 0.96875 2.25 0.03125 0.03125 0.0625 0.09375 0.125 0.125 0.5625 0.53125 1.3438 0.8125 2.125 0.8125l1.1875-0.03125c0.4375 0 0.78125-0.34375 0.78125-0.75v-1.3125c0.77734-1.3125 1.6758-2.4297 2.582-3.4023l0.42578 0.36328c0.48438 0.46875 1.1484 0.71094 1.8203 0.66406 0.74609-0.035156 1.4453-0.375 1.9297-0.94531 0.45313-0.57031 0.96094-0.86328 1.5156-0.86719l1.543-0.011719c1.7383-0.011719 2.6875-1.2148 2.8555-2.4023 0.070313-0.49219 0.078125-0.99219 0.097656-1.4922h0.011719l4.625-0.0625c1.5 0.5625 1.7812 1.6875 1.8438 2.2188-0.84375 0.78125-3.5312 3.6562-5.2812 9.375-0.3125 1 0 2.0625 0.75 2.75 0.25 0.21875 0.5625 0.40625 0.875 0.5l5.5 1.9375c0.3125 0.125 0.65625 0 0.84375-0.25 0.125-0.15625 0.71875-1.0625 0.65625-3.1562-0.03125-0.4375 0.03125-0.875 0.1875-1.2812 0.53125-1.4688 1.5938-2.8438 3.1562-4.0938 0.21875 0.125 0.4375 0.1875 0.65625 0.21875 1.375 0.1875 2.75 0.15625 4.125-0.0625h0.125c0.019531 0 0.042969-0.011719 0.0625-0.03125l0.078125-0.023438 0.90234-0.25781h0.019531l0.09375-0.03125 0.5-0.0625c0.65625 2.9688 2.4688 9 7.0625 13.094 0.0625 0.03125 0.125 0.09375 0.15625 0.125 0.25 0.21875 0.65625 0.25 0.9375 0.0625l6.4688-4.2812c0.0625-0.03125 0.09375-0.0625 0.125-0.09375 0.3125-0.28125 0.3125-0.78125 0-1.0625-0.03125-0.0625-3.9062-4.0938-5.25-9.5625 0.34375-0.0625 0.59375-0.40625 0.5625-0.75v-2.125c0.90625-0.03125 1.6562-0.8125 1.6562-1.7188v-0.8125h2.0312c0.03125 0 0.0625 0 0.09375-0.03125 0.019531 0.019531 0.042969 0.03125 0.0625 0.03125h0.78125v0.65625c0 0.625 0.25 1.1875 0.6875 1.625 0.03125 0.03125 0.0625 0.0625 0.09375 0.0625 0.40625 0.40625 0.96875 0.59375 1.5312 0.59375l5.7188-0.03125c0 0.28125 0.0625 0.53125 0.1875 0.78125v0.0625l0.09375 11.281c0 0.71875 0.28125 1.4062 0.8125 1.9062l0.09375 0.09375c0.5 0.4375 1.125 0.6875 1.7812 0.65625h1.4062c1.4688 0 2.6562-1.2188 2.6562-2.6875l-0.09375-11.25c0-0.019531-0.011719-0.042969-0.03125-0.0625 0.125-0.25 0.21875-0.53125 0.21875-0.84375l3.4688-0.03125c0.71875 0 1.3125-0.40625 1.5938-1l0.875-0.03125c1.25 0 2.2812-1.0312 2.25-2.2812v-0.15625h0.71875v1.0312c0 1.0312 0.875 1.875 1.9062 1.875l2.0938-0.03125c1.0312 0 1.875-0.84375 1.875-1.875v-1.0312l2.9688-0.03125c0.0625 0.125 0.15625 0.25 0.28125 0.375 0 0.03125 0.03125 0.03125 0.0625 0.0625 0.34375 0.3125 0.78125 0.46875 1.25 0.46875l3.1875-0.03125c1 0 1.8438-0.84375 1.8125-1.8438v-2.375c0-1-0.84375-1.8125-1.875-1.8125zm-11.625-4.9688 1.5-0.03125c0.4375 0 0.8125 0.375 0.8125 0.8125l0.0625 5.9375v1.3125h-1.375v-1.2812l-0.03125-4.3125c0-0.21875-0.09375-0.40625-0.28125-0.5625-0.3125-0.28125-0.78125-0.25-1.0625 0.0625l-3.5938 4.0625-0.875-0.96875 3.7188-4.5c0.28125-0.34375 0.6875-0.53125 1.125-0.53125zm-0.5625 5.9688-1.3438 0.03125 1.3438-1.5312zm-14.781 12.531c0-0.59375 0.46875-1.0938 1.0625-1.125 0.6875-0.03125 1.2812-0.28125 1.7188-0.59375l0.03125 1.3438c-0.59375 0.5-1.2812 0.75-2.0312 0.78125-0.3125 0-0.5625-0.0625-0.78125-0.125zm2.5312-4.1875-1.0938 0.5625c-0.3125 0.1875-0.6875 0.1875-1 0.03125l-1.0938-0.5625c-0.21875-0.125-0.375-0.3125-0.40625-0.5625l4.0312-0.0625c-0.03125 0.28125-0.1875 0.46875-0.4375 0.59375zm-2.5312 6.0625c0.25 0.0625 0.5 0.0625 0.78125 0.0625 0.71875-0.03125 1.4062-0.1875 2.0312-0.5v2.1875c-0.5625 0.46875-1.25 0.71875-2 0.75-0.34375 0-0.625-0.0625-0.84375-0.15625zm23.5-13.531c0-0.1875 0.125-0.3125 0.28125-0.3125l3.2188-0.03125c0.0625 0 0.15625 0.03125 0.1875 0.0625 0.0625 0.0625 0.125 0.15625 0.125 0.25v1.9375c-0.1875 0.0625-0.375 0.125-0.59375 0.125h-2.5c-0.28125 0-0.53125-0.0625-0.71875-0.21875zm-15.344-1.1875v2.8438h-2.5625l-0.03125-4.4062 2.5938-0.03125zm-4.0938 2.875h-2.5938l-0.03125-4.4375h2.5625zm-4.125 0-2.5938 0.03125-0.03125-4.4375h2.5625zm-4.125 0.03125h-0.46875c-1.1562 0-2.0625-0.875-2.1562-2.0312v-2.375h2.5625zm-27.031-9.6562-0.03125-2.875c0-0.4375 0.34375-0.78125 0.75-0.78125l9.5625-0.0625 0.03125 4.125c0 0.15625-0.125 0.28125-0.28125 0.28125l-9.25 0.09375c-0.21875 0-0.40625-0.09375-0.5625-0.21875-0.125-0.15625-0.21875-0.34375-0.21875-0.5625zm9.0625 16.906h-0.007812c-0.03125-0.12109-0.070313-0.24219-0.097657-0.36328-0.11719-0.48047 0.17969-0.96094 0.66016-1.0781 0.023437-0.007813 0.050781-0.007813 0.074218-0.015625l4.7109-0.72656v1.2422l-5.3438 0.9375zm-22.625-10.906c-0.1875 0.65625-0.46875 1.3125-0.8125 1.9062-0.25 0.46875-0.5625 0.9375-0.90625 1.3438-0.59375 0.71875-1.4688 1.1562-2.4062 1.1562l-6.5 0.03125h-0.6875l-0.09375-4.375zm-15.031 14.031c-0.90625 0-1.6562-0.75-1.6875-1.6562l-0.0625-10.781c0-0.8125 0.625-1.4688 1.4688-1.5h0.59375l0.125 13.906zm23.312 2.8438c-0.21875 0.59375-0.3125 1.2188-0.28125 1.8438 0.03125 0.5625-0.03125 1.125-0.15625 1.6875l-4.7812-1.6875c-0.5625-0.1875-0.875-0.78125-0.6875-1.3438 1.5312-5.125 3.9375-7.8125 4.75-8.6562l3.75 0.34375c-0.09375 1.25 0.15625 2.2188 0.4375 2.875l0.09375 0.15625c0.03125 0.125 0.09375 0.21875 0.125 0.3125-1.5625 1.3438-2.6562 2.8438-3.25 4.4688zm5.4688-4.875c-0.40625-0.0625-0.8125-0.3125-1.0312-0.6875l-0.09375-0.15625c-0.1875-0.5625-0.34375-1.4062-0.15625-2.5312l0.93359-0.03125c0.14062 0.87891 0.48047 2.0078 1.3242 2.7891 0.11328 0.10156 0.28516 0.089844 0.38281-0.023437 0.070313-0.082031 0.089844-0.19531 0.046875-0.29297-0.30859-0.65234-0.48828-1.5547 0.023438-2.4766l1.7812-0.03125h0.03125c0.375 0.1875 1.3125 0.84375 1.0938 2.7812 0.03125 0.03125 0.03125 0.0625 0 0.0625-0.0625 0.21875-0.21875 0.375-0.40625 0.46875l-0.21875 0.0625c-1.2188 0.21875-2.4688 0.25-3.7188 0.0625zm13.5 12.719c-3.0625-2.8438-4.75-6.625-5.625-9.5l0.84375-0.34375c0.875 2.5938 2.5938 6.4688 5.6875 9.2188zm2.2812-1.5c-2.375-1.9688-3.9375-4.7188-4.9375-7.0625-0.28125-0.65625-0.5-1.2812-0.6875-1.8125l1.25-0.5c0.71875 2.25 2.25 5.8125 5.3125 8.75zm2.9375-1.9375-0.65625 0.4375c-3.0312-2.75-4.5-6.2812-5.1562-8.4375l1.0938-0.4375c1.25 4.0312 3.625 7.125 4.7188 8.4375zm-3.0312-14.344-11.062 0.09375c-0.09375-0.09375-0.09375-0.1875-0.125-0.3125l-0.15625-1.1562 9.8438-0.15625c0.28125 0 0.5-0.25 0.5-0.53125s-0.25-0.53125-0.53125-0.5l-2.5312 0.03125c0.3125-0.375 0.5-0.875 0.5-1.4062 0-1.1875-0.96875-2.125-2.1562-2.125l-7.4062 0.0625c-0.59375 0-1.1875 0.25-1.5938 0.71875-0.5 0.5625-0.65625 1.3438-0.4375 2.0312l-8.8125 0.09375-0.21875-3.8438h0.03125l5.2188-0.03125 18.875-0.125c0.09375 0 0.1875 0.0625 0.1875 0.1875l0.0625 6.7812c0 0.09375-0.09375 0.1875-0.1875 0.1875zm18.188 14c0.03125 0.625-0.5 1.1562-1.125 1.1562h-1.375c-0.09375 0-0.1875 0-0.28125-0.0625-0.09375-0.3125-0.09375-0.53125-0.09375-0.53125v-2.0625c0.28125 0.0625 0.5625 0.0625 0.84375 0.0625 0.71875-0.03125 1.4062-0.1875 2.0312-0.5z"/>
 <path d="m39.473 35.547c0.30469-0.34375 0.27344-0.87109-0.070312-1.1797-0.34375-0.30469-0.87109-0.27344-1.1797 0.070312-0.30469 0.34375-0.27344 0.87109 0.070313 1.1797 0.34375 0.30469 0.87109 0.27344 1.1797-0.070313z"/>
<text x="0.0" y="117.5" font-size="5.0" font-weight="bold" font-family="Arbeit Regular, Helvetica, Arial-Unicode, Arial, Sans-serif" fill="#000000">Created by Wahyu A</text><text x="0.0" y="122.5" font-size="5.0" font-weight="bold" font-family="Arbeit Regular, Helvetica, Arial-Unicode, Arial, Sans-serif" fill="#000000">from Noun Project</text></svg>