<svg xmlns="http://www.w3.org/2000/svg" xmlns:xlink="http://www.w3.org/1999/xlink" version="1.1" x="0px" y="0px" viewBox="0 0 100 125" enable-background="new 0 0 100 100" xml:space="preserve"><path d="M6.042,58.667"/><path d="M6.823,61.833"/><path d="M8.875,61.833"/><rect x="2.162" y="59.25" width="1.864" height="3.875"/><path d="M95.75,51.166c-0.818-2.09-3-2.591-3-2.59c0,0-18-6.326-22.625-7.826S65,39.5,65,39.5l6.209,11.666"/><polygon points="48.209,34.188 48.209,37.413 36.273,37.413 36.273,34.91 36.852,34.188 36.9,33.13 37.284,33.13 37.284,34.188 "/><rect x="31.028" y="35.125" width="4.091" height="1.805"/><rect x="18.372" y="35.8" width="11.165" height="0.457"/><polygon points="93.001,47.542 93.876,47.885 93.876,43.75 93.001,43.75 "/><rect x="93.282" y="13.724" width="0.312" height="29.141"/><path d="M25.975,66.875c0,4.723-3.828,8.55-8.55,8.55s-8.55-3.827-8.55-8.55s3.828-8.551,8.55-8.551S25.975,62.152,25.975,66.875z   M17.425,62.875c-2.209,0-4,1.791-4,4s1.791,4,4,4s4-1.791,4-4S19.634,62.875,17.425,62.875z"/><path d="M88.925,66.875c0,4.723-3.828,8.55-8.55,8.55c-4.723,0-8.551-3.827-8.551-8.55s3.828-8.551,8.551-8.551  C85.097,58.324,88.925,62.152,88.925,66.875z M80.375,62.875c-2.209,0-4,1.791-4,4s1.791,4,4,4s4-1.791,4-4  S82.584,62.875,80.375,62.875z"/><circle cx="80.375" cy="64.275" r="0.4"/><circle cx="80.221" cy="69.475" r="0.4"/><circle cx="77.775" cy="66.813" r="0.4"/><circle cx="82.975" cy="66.968" r="0.4"/><circle cx="78.526" cy="64.997" r="0.4"/><circle cx="82.093" cy="68.784" r="0.4"/><circle cx="78.482" cy="68.629" r="0.4"/><circle cx="82.269" cy="65.062" r="0.401"/><circle cx="17.426" cy="64.275" r="0.4"/><circle cx="17.271" cy="69.475" r="0.4"/><circle cx="14.826" cy="66.813" r="0.4"/><circle cx="20.025" cy="66.968" r="0.4"/><circle cx="15.576" cy="64.997" r="0.4"/><circle cx="19.144" cy="68.784" r="0.4"/><circle cx="15.532" cy="68.629" r="0.4"/><circle cx="19.319" cy="65.062" r="0.401"/><path d="M70.396,52.241l25.541,0.022c0.342,0.004,0.469,0.406,0.469,0.861c0,2.875,0,10,0,10l-6.416-0.017  c-0.631-4.735-4.728-7.796-9.637-7.796c-5.347,0-9.479,3.354-10.791,9.086c0,0-1.438,3.497-6.938,3.497H33.594  c-5.5,0-5.75-3.039-5.75-3.039c0-5.345-5.445-9.086-10.791-9.086c-4.226,0-7.942,2.412-9.271,6.062h-2.74v-2.31h0.996l0.004-6.606  c0,0-0.625-1.249,12.958-2.75H30L32,42c0,0,0.625-2.5,2.25-2.5l29.438-0.016L70.396,52.241z M46.917,41.833H34.833v9.75h12.083  V41.833z M62.334,41.834H50.25v9.75h12.084V41.834z M36.655,55.513l-0.433,0.485l4.04,3.312l-4.04,3.279l0.433,0.547l4.214-3.342  L45,63.137l0.487-0.577l-4.01-3.249l4.01-3.282l-0.456-0.516l-4.162,3.341L36.655,55.513z M52.244,55.513l-0.434,0.485l4.041,3.312  l-4.041,3.279l0.434,0.547l4.215-3.342l4.131,3.342l0.485-0.577l-4.009-3.249l4.009-3.282l-0.455-0.516l-4.161,3.341L52.244,55.513z  "/><text x="0" y="115" fill="#000000" font-size="5px" font-weight="bold" font-family="'Helvetica Neue', Helvetica, Arial-Unicode, Arial, Sans-serif">Created by Luke Anthony Firth</text><text x="0" y="120" fill="#000000" font-size="5px" font-weight="bold" font-family="'Helvetica Neue', Helvetica, Arial-Unicode, Arial, Sans-serif">from the Noun Project</text></svg>