<svg xmlns="http://www.w3.org/2000/svg" xmlns:xlink="http://www.w3.org/1999/xlink" version="1.1" x="0px" y="0px" viewBox="0 0 100 125" enable-background="new 0 0 100 100" xml:space="preserve"><g><path d="M81.627,59.606l-14.215,6.992c-0.039,0.02-0.072,0.049-0.107,0.07c-0.055,0.033-0.109,0.063-0.158,0.102   c-0.045,0.037-0.084,0.078-0.125,0.119c-0.043,0.043-0.086,0.082-0.123,0.131c-0.037,0.047-0.066,0.098-0.096,0.148   c-0.025,0.039-0.055,0.072-0.076,0.115l-6.982,14.209c-0.283,0.576-0.168,1.269,0.285,1.722c0.289,0.288,0.672,0.439,1.061,0.439   c0.225,0,0.451-0.051,0.662-0.154l14.201-6.986c0.039-0.02,0.072-0.049,0.109-0.071c0.053-0.031,0.105-0.062,0.152-0.1   c0.049-0.037,0.09-0.081,0.133-0.124c0.039-0.041,0.08-0.078,0.115-0.123c0.039-0.05,0.07-0.104,0.104-0.158   c0.021-0.037,0.051-0.068,0.07-0.107l6.998-14.216c0.283-0.574,0.17-1.268-0.285-1.723C82.895,59.438,82.203,59.323,81.627,59.606z    M64.379,78.865l4.115-8.376l4.254,4.258L64.379,78.865z M74.871,72.626l-4.256-4.26l8.383-4.123L74.871,72.626z"/><path d="M92.172,60.444c-3.631-6.678-10.23-11.1-17.65-12.009V28.623c0-0.829-0.672-1.5-1.5-1.5h-47.94V8.557   c0-0.5-0.249-0.967-0.664-1.245c-2.056-1.38-4.455-2.11-6.938-2.11c-6.872,0-12.462,5.589-12.462,12.458v43.36   c0,6.871,5.59,12.461,12.462,12.461h30.989c0.984,11.951,11.016,21.378,23.215,21.378c12.846,0,23.299-10.456,23.299-23.308   C94.982,67.688,94.012,63.851,92.172,60.444z M8.018,17.66c0-5.215,4.245-9.458,9.462-9.458c1.624,0,3.2,0.41,4.602,1.193v40.044   c-1.456-0.58-3.013-0.881-4.602-0.881c-3.781,0-7.175,1.693-9.462,4.361V17.66z M8.018,61.021c0-5.217,4.245-9.463,9.462-9.463   c1.88,0,3.702,0.555,5.267,1.604c0.461,0.309,1.053,0.338,1.542,0.076c0.488-0.26,0.793-0.77,0.793-1.322V30.122h46.44v18.133   c-0.254,0.002-0.504,0.021-0.756,0.03c-0.252,0.011-0.506,0.013-0.758,0.03c-0.281,0.021-0.559,0.057-0.836,0.087   c-0.246,0.026-0.492,0.046-0.736,0.08c-0.281,0.039-0.557,0.095-0.836,0.144c-0.236,0.042-0.477,0.077-0.713,0.127   c-0.277,0.059-0.551,0.132-0.826,0.201c-0.23,0.057-0.463,0.106-0.689,0.17c-0.275,0.077-0.543,0.17-0.813,0.256   c-0.225,0.072-0.451,0.137-0.672,0.215c-0.266,0.095-0.523,0.203-0.783,0.307c-0.221,0.088-0.443,0.168-0.662,0.262   c-0.258,0.111-0.508,0.236-0.762,0.357c-0.213,0.102-0.428,0.195-0.637,0.303c-0.25,0.128-0.492,0.27-0.736,0.406   c-0.205,0.115-0.414,0.225-0.617,0.346c-0.236,0.141-0.463,0.297-0.693,0.447c-0.201,0.131-0.408,0.256-0.605,0.393   c-0.227,0.158-0.443,0.328-0.664,0.492c-0.191,0.145-0.391,0.283-0.578,0.434c-0.215,0.17-0.418,0.355-0.627,0.533   c-0.186,0.158-0.375,0.311-0.555,0.475c-0.199,0.184-0.389,0.377-0.582,0.566c-0.178,0.176-0.359,0.342-0.533,0.523   c-0.186,0.193-0.361,0.402-0.541,0.604c-0.168,0.188-0.34,0.369-0.502,0.563c-0.178,0.211-0.342,0.436-0.514,0.656   c-0.15,0.193-0.309,0.383-0.455,0.584c-0.191,0.262-0.367,0.535-0.547,0.807c-0.113,0.17-0.234,0.332-0.342,0.506   c-0.283,0.449-0.553,0.91-0.807,1.381c-0.492,0.918-0.928,1.881-1.297,2.865c-0.303,0.82-0.551,1.611-0.76,2.43   c-0.107,0.432-0.2,0.867-0.283,1.303c-0.026,0.139-0.048,0.278-0.072,0.418c-0.051,0.301-0.099,0.602-0.139,0.903   c-0.021,0.16-0.041,0.321-0.059,0.482c-0.033,0.29-0.059,0.581-0.08,0.872c-0.012,0.155-0.025,0.312-0.033,0.467   c-0.004,0.067-0.012,0.136-0.016,0.203H17.479C12.262,70.481,8.018,66.237,8.018,61.021z M71.684,91.859   c-11.061,0-20.066-8.896-20.281-19.909c0-0.001,0-0.003,0-0.004c-0.002-0.089-0.008-0.175-0.014-0.261v-0.008   c0-0.043-0.006-0.084-0.006-0.126c0-1.669,0.207-3.35,0.613-4.986c0.18-0.705,0.398-1.398,0.664-2.115   c0.318-0.855,0.699-1.693,1.127-2.49c0.223-0.414,0.457-0.816,0.705-1.209c3.707-5.893,10.174-9.496,17.191-9.496   c0.01,0,0.02,0,0.029,0c0.229,0.002,0.455,0.025,0.682,0.047c0.176,0.016,0.354,0.033,0.531,0.045   c0.117,0.006,0.234-0.004,0.35-0.023c6.82,0.533,12.953,4.471,16.258,10.551c1.602,2.965,2.449,6.311,2.449,9.678   C91.982,82.749,82.875,91.859,71.684,91.859z"/><path d="M47.689,40.306c-0.586-0.586-1.535-0.586-2.122-0.001l-4.091,4.089l-4.092-4.089c-0.586-0.585-1.536-0.585-2.122,0.001   c-0.585,0.586-0.585,1.535,0,2.121l4.09,4.088l-4.09,4.088c-0.586,0.586-0.586,1.535,0,2.121c0.293,0.293,0.677,0.439,1.061,0.439   c0.384,0,0.768-0.146,1.061-0.439l4.092-4.088l4.091,4.088c0.293,0.293,0.677,0.439,1.061,0.439s0.769-0.146,1.062-0.439   c0.585-0.586,0.585-1.535-0.001-2.121l-4.091-4.088l4.091-4.088C48.274,41.841,48.274,40.892,47.689,40.306z"/></g><text x="0" y="115" fill="#000000" font-size="5px" font-weight="bold" font-family="'Helvetica Neue', Helvetica, Arial-Unicode, Arial, Sans-serif">Created by Tinashe Mugayi</text><text x="0" y="120" fill="#000000" font-size="5px" font-weight="bold" font-family="'Helvetica Neue', Helvetica, Arial-Unicode, Arial, Sans-serif">from the Noun Project</text></svg>