<svg xmlns="http://www.w3.org/2000/svg" version="1.1" viewBox="-5.0 -10.0 110.0 135.0">
 <path d="m73.719 75.477c-2.7578-0.003906-5.5078-0.26562-8.2188-0.78516-0.52344-0.10156-10-2.043-16.309-8.1172-2.4141-2.3242-6.3281-2.1289-9.1836-1.5547-2.0586 0.42578-4.0625 1.0859-5.9727 1.9648-0.35938 0.17188-0.77344 0.19922-1.1484 0.070313-0.37891-0.12891-0.6875-0.40625-0.86328-0.76172-0.36328-0.74609-0.054688-1.6445 0.69141-2.0117 0.5-0.24219 12.293-5.9062 18.559 0.12891 5.7188 5.5078 14.723 7.3164 14.812 7.3359h0.015624c0.13672 0.027344 13.879 2.793 19.246-2.6992 2.0664-2.1133 2.6172-5.3438 1.6328-9.6016 0-0.011718-0.003907-0.027343-0.007813-0.039062-0.015625-0.082031-1.8008-8.4258-7.2891-10.52v0.003906c-0.38672-0.12891-0.70703-0.41016-0.88281-0.78125s-0.19531-0.79688-0.046875-1.1797c0.14453-0.38281 0.44141-0.69141 0.82031-0.84766 0.375-0.16016 0.80469-0.15625 1.1797 0.007813 6.9492 2.6484 9.0234 12.066 9.1562 12.699 1.2188 5.3086 0.40625 9.4648-2.4219 12.352-3.3867 3.4844-9.0391 4.332-13.77 4.3359z"/>
 <path d="m33.445 63.969c-0.046874-0.066406-0.10156-0.12891-0.14844-0.19922-1.8906-2.4141-5.0898-3.3906-8.0391-2.5391l-10.277 2.9648c-2.0898 0.6875-3.8125 2.1914-4.7773 4.1641-0.96875 1.9766-1.0977 4.2578-0.36328 6.332 0.73828 2.0703 2.2773 3.7578 4.2734 4.6836 1.9961 0.92188 4.2773 1 6.3359 0.21875l9.8008-4.1641c4.4922-1.9062 6.1016-7.5312 3.1953-11.461zm-4.668 6.7383-6.5 2.3828v0.003906c-1.2969 0.47266-2.7305-0.19141-3.207-1.4883l-0.13672-0.36719c-0.47266-1.2969 0.19141-2.7344 1.4883-3.207l6.5-2.3828c1.2969-0.47656 2.7305 0.1875 3.207 1.4844l0.13672 0.36719c0.47266 1.2969-0.19141 2.7344-1.4883 3.2109z"/>
 <path d="m84.48 19.93h-57.223c-1.3398 0-2.6289 0.53125-3.5742 1.4805-0.94922 0.94922-1.4844 2.2344-1.4844 3.5781v19.477c0 2.793 2.2656 5.0586 5.0586 5.0586h57.223c2.793 0 5.0586-2.2656 5.0586-5.0586v-19.477c0-1.3438-0.53125-2.6289-1.4805-3.5781-0.94922-0.94922-2.2344-1.4805-3.5781-1.4805zm-53.074 23.086c0 0.55078-0.44531 1-1 1-0.55078 0-1-0.44922-1-1v-16.758c0-0.55469 0.44922-1 1-1 0.55469 0 1 0.44531 1 1zm6.2305 0h0.003906c0 0.55078-0.44922 1-1 1-0.55469 0-1-0.44922-1-1v-16.758c0-0.55469 0.44531-1 1-1 0.55078 0 1 0.44531 1 1zm6.2305 0h0.003906c0 0.55078-0.44922 1-1 1-0.55469 0-1-0.44922-1-1v-16.758c0-0.55469 0.44531-1 1-1 0.55078 0 1 0.44531 1 1zm6.2305 0h0.003906c0 0.55078-0.44922 1-1 1-0.55469 0-1-0.44922-1-1v-16.758c0-0.55469 0.44531-1 1-1 0.55078 0 1 0.44531 1 1zm14.434 0.18359c0 0.55469-0.44531 1-1 1-0.55078 0-1-0.44531-1-1v-0.35938c0-0.55078 0.44922-1 1-1 0.55469 0 1 0.44922 1 1zm16.07 0c0 0.55469-0.44922 1-1 1-0.55469 0-1-0.44531-1-1v-0.35938c0-0.55078 0.44531-1 1-1 0.55078 0 1 0.44922 1 1zm0.73047-7.9531h-19.531v-8.9883h19.531z"/>
<text x="0.0" y="117.5" font-size="5.0" font-weight="bold" font-family="Arbeit Regular, Helvetica, Arial-Unicode, Arial, Sans-serif" fill="#000000">Created by IYIKON</text><text x="0.0" y="122.5" font-size="5.0" font-weight="bold" font-family="Arbeit Regular, Helvetica, Arial-Unicode, Arial, Sans-serif" fill="#000000">from Noun Project</text></svg>